<?xml version="1.0" encoding="UTF-8" standalone="no"?>
<!-- Created with Inkscape (http://www.inkscape.org/) -->

<svg
   xmlns:dc="http://purl.org/dc/elements/1.1/"
   xmlns:cc="http://creativecommons.org/ns#"
   xmlns:rdf="http://www.w3.org/1999/02/22-rdf-syntax-ns#"
   xmlns:svg="http://www.w3.org/2000/svg"
   xmlns="http://www.w3.org/2000/svg"
   xmlns:sodipodi="http://sodipodi.sourceforge.net/DTD/sodipodi-0.dtd"
   xmlns:inkscape="http://www.inkscape.org/namespaces/inkscape"
   width="96"
   height="96"
   viewBox="0 0 25.399999 25.400001"
   version="1.1"
   id="svg8"
   inkscape:version="0.92.2 (5c3e80d, 2017-08-06)"
   sodipodi:docname="linuxmint-logo-flat-2-symbolic.svg">
  <defs
     id="defs2" />
  <sodipodi:namedview
     id="base"
     pagecolor="#ffffff"
     bordercolor="#666666"
     borderopacity="1.0"
     inkscape:pageopacity="0.0"
     inkscape:pageshadow="2"
     inkscape:zoom="5.6"
     inkscape:cx="1.3510614"
     inkscape:cy="83.435084"
     inkscape:document-units="mm"
     inkscape:current-layer="layer1"
     showgrid="false"
     inkscape:pagecheckerboard="true"
     units="px"
     inkscape:window-width="2560"
     inkscape:window-height="1387"
     inkscape:window-x="0"
     inkscape:window-y="0"
     inkscape:window-maximized="1" />
  <metadata
     id="metadata5">
    <rdf:RDF>
      <cc:Work
         rdf:about="">
        <dc:format>image/svg+xml</dc:format>
        <dc:type
           rdf:resource="http://purl.org/dc/dcmitype/StillImage" />
        <dc:title />
      </cc:Work>
    </rdf:RDF>
  </metadata>
  <g
     inkscape:label="Calque 1"
     inkscape:groupmode="layer"
     id="layer1"
     transform="translate(0,-271.59998)">
    <g
       id="g4714"
       transform="matrix(0.08631084,0,0,0.08631084,-5.6019438,225.07507)"
       style="stroke:none;fill:#bebebe;fill-opacity:1">
      <path
         id="path4601"
         d="M 212.04688,538.32422 A 147.14287,147.85715 0 0 0 64.904297,686.18164 147.14287,147.85715 0 0 0 212.04688,834.03906 147.14287,147.85715 0 0 0 359.18945,686.18164 147.14287,147.85715 0 0 0 212.04688,538.32422 Z m -98.03126,59.97266 97.47461,0.45898 30.49219,0.0644 c 36.49165,0 68.09766,27.6075 68.09766,64.06641 V 774.06641 H 205.25977 c -36.45889,0 -68.09766,-27.64019 -68.09766,-64.06641 l -0.0332,-44.22852 v -11.27929 h -23.11329 z m 14.88477,14.94921 v 26.39453 h 9.24805 c 6.27863,0 13.83398,5.90011 13.83398,14.5586 l 0.0645,55.76953 c 0,27.18005 23.836,49.21289 53.21289,49.21289 h 72.53125 c 9.29857,0 17.43554,-5.88941 17.43554,-14.93945 v -81.35547 c 0,-27.18003 -23.83442,-49.21289 -53.24414,-49.21289 h -30.52539 v -0.0664 z m 38.83594,13.86719 h 15.45312 v 79.27539 c 0,10.60539 7.24219,18.85938 15.72071,18.85938 l 48.01172,0.20703 c 10.9868,0 19.53906,-7.56866 19.53906,-16.54883 l -0.0899,-42.09766 c 0,-2.7319 -0.89119,-4.8675 -2.84179,-6.83789 -1.95694,-1.97669 -4.0279,-2.87304 -6.71875,-2.87304 -2.74728,0 -4.78874,0.89184 -6.75,2.87304 -1.95061,1.97039 -2.8418,4.10599 -2.8418,6.83789 v 36.02735 h -16.3418 v -36.02735 c 0,-2.7319 -0.89119,-4.8675 -2.84179,-6.83789 -1.96126,-1.9812 -4.00278,-2.87304 -6.75,-2.87304 -2.69084,0 -4.76373,0.89635 -6.72071,2.87304 -1.95059,1.97039 -2.84179,4.10599 -2.84179,6.83789 v 36.02735 h -16.3418 v -36.02735 c -1e-5,-7.12758 2.63041,-13.44292 7.63867,-18.50195 5.01078,-5.06173 11.24693,-7.66797 18.26563,-7.66797 6.88656,0 12.87217,2.56855 17.73242,7.25195 4.8745,-4.69113 10.90356,-7.25195 17.79297,-7.25195 7.01866,0 13.25491,2.60624 18.26562,7.66797 5.00835,5.05903 7.63672,11.37437 7.63672,18.50195 l 0.0605,44.96875 c -0.77217,7.53009 -3.94976,14.22066 -9.38477,19.80469 h -0.0293 c -6.39045,6.50586 -14.31176,9.85938 -23.32813,9.85938 h -53.99219 c -7.18129,-0.768 -13.57405,-4.16822 -18.88867,-9.41407 -6.21793,-6.19385 -9.41406,-13.85327 -9.41406,-22.58789 z"
         style="opacity:1;fill:#bebebe;fill-opacity:1;stroke-width:0.9604727;stroke:none"
         inkscape:connector-curvature="0" />
    </g>
  </g>
</svg>
